#define anchor_width 7
#define anchor_height 8
static char anchor_bits[] = {
   0x08, 0x14, 0x22, 0x41, 0x22, 0x14, 0x08, 0x00};
