#define foot_width 7
#define foot_height 8
static char foot_bits[] = {
   0x08, 0x2a, 0x14, 0x7f, 0x14, 0x2a, 0x08, 0x00};
