#define na_width 9
#define na_height 9
static char na_bits[] = {
   0x00, 0x00, 0xed, 0x01, 0x0b, 0x01, 0xe9, 0x01, 0x29, 0x01, 0xe9, 0x01,
   0x00, 0x00, 0x00, 0x00, 0x00, 0x00};
