#define subst_width 7
#define subst_height 8
static char subst_bits[] = {
   0x08, 0x08, 0x08, 0x08, 0x2a, 0x3e, 0x1c, 0x08};
